[img]http://i.imgrz.com/pleM.jpg[/img]

[code]

Skyfall.2012.1080p.HD.TS.NEW.XVID-26K
 
http://www.imdb.com/title/tt1074638/

Plot:

Bond's loyalty to M is tested as her past comes back to haunt her, bringing MI6 under attack.

Sources - VIDEO: 1080 file  ..... thanks .... :P
          AUDIO: CAM/LiNE combo ..... thanks .... :p
        
Video
ID                                       : 0
Format                                   : MPEG-4 Visual
Format profile                           : Advanced Simple@L5
Format settings, BVOP                    : 2
Format settings, QPel                    : No
Format settings, GMC                     : No warppoints
Format settings, Matrix                  : Default (H.263)
Muxing mode                              : Packed bitstream
Codec ID                                 : XVID
Codec ID/Hint                            : XviD
Duration                                 : 2h 18mn
Bit rate                                 : 3 998 Kbps
Width                                    : 1 920 pixels
Height                                   : 1 080 pixels
Display aspect ratio                     : 16:9
Frame rate                               : 29.970 fps
Color space                              : YUV
Chroma subsampling                       : 4:2:0
Bit depth                                : 8 bits
Scan type                                : Progressive
Compression mode                         : Lossy
Bits/(Pixel*Frame)                       : 0.064
Stream size                              : 3.86 GiB (92%)
Writing library                          : XviD 64

Audio
ID                                       : 1
Format                                   : MPEG Audio
Format version                           : Version 1
Format profile                           : Layer 3
Mode                                     : Joint stereo
Codec ID                                 : 55
Codec ID/Hint                            : MP3
Duration                                 : 2h 18mn
Bit rate mode                            : Constant
Bit rate                                 : 320 Kbps
Channel(s)                               : 2 channels
Sampling rate                            : 44.1 KHz
Compression mode                         : Lossy
Delay relative to video                  : 3ms
Stream size                              : 316 MiB (7%)
Alignment                                : Split accross interleaves
Interleave, duration                     : 6551 ms (196.33 video frames)


Notes -

K 1st off get it straight this is not same source used by INSPiRAL and others for the HDTS .. this is new source
check runtime and fps.. get it right people b4 u start running ur chops... 

k source is over cropped on sides for reasons.. took sum of the slight flicker out and then jsut few 
minor tweaks to vid....then jsut muxed the 
CAM/LiNE audio combo from our other rls to it.. and its only CAM audio for under 30 sec the whole movie a
s we didnt have access to the FULL LiNE for it since we had full vid :)

enjoy :)

[/code]

Screens:
[IMG]http://i.imgur.com/qQOvK.jpg[/IMG]
[IMG]http://i.imgur.com/BkLeu.jpg[/IMG]
[IMG]http://i.imgur.com/EA9vb.jpg[/IMG]
[IMG]http://i.imgur.com/Mnxk2.jpg[/IMG]
[IMG]http://i.imgur.com/wUiCQ.jpg[/IMG]
[img]http://s6.postimage.org/dmm00h6jl/vlcsnap_2012_12_13_00h04m01s9.png[/img]
[img]http://s6.postimage.org/eq64cfr6p/vlcsnap_2012_12_13_00h04m05s49.png[/img]
[img]http://s6.postimage.org/f47gc1ba9/vlcsnap_2012_12_13_00h04m16s165.png[/img]
[img]http://s6.postimage.org/u1fxd1oip/vlcsnap_2012_12_13_00h04m34s97.png[/img]
[img]http://s6.postimage.org/pgtqy44td/vlcsnap_2012_12_13_00h04m53s34.png[/img]
[img]http://s6.postimage.org/6091bl9pd/vlcsnap_2012_12_13_00h05m04s125.png[/img]
[img]http://s6.postimage.org/sqcribiap/vlcsnap_2012_12_13_00h05m19s29.png[/img]


Greetz:
XtremeEncode|CM8|RX|VISION|HDSCENE|xTriLL|ADTRG|CRYS|REMIXHD|HS|Tommiecook
BIDA|RX|REFILL|INSPiRAL|AXED|HOPE|Anonymous|GooN|NOIR|Blackjesus|Gabroo Punjab Deh
|UNiQUE|RESiSTANCE|HS|LEGION

To all the people who have helped me, you know who you are

Anything to offer email us @: 26k@hushmail.me 